<svg height="512pt" viewBox="0 0 512 512" width="512pt" xmlns="http://www.w3.org/2000/svg"><path d="m452 0h-299.988281c-.007813 0-.015625 0-.023438 0h-91.988281c-33.085938 0-60 26.914062-60 60v28c0 33.085938 26.914062 60 60 60h392c33.085938 0 60-26.914062 60-60v-28c0-33.085938-26.914062-60-60-60zm-294.714844 108-68-68h54.429688l68 68zm43-68h46.714844v46.714844zm-160.285156 48v-28c0-3.648438.996094-7.058594 2.710938-10.007812l58.003906 58.007812h-40.714844c-11.027344 0-20-8.972656-20-20zm432 0c0 11.027344-8.972656 20-20 20h-165v-68h165c11.027344 0 20 8.972656 20 20zm-20 276h-392c-33.085938 0-60 26.914062-60 60v28c0 33.085938 26.914062 60 60 60h292c11.046875 0 20-8.953125 20-20s-8.953125-20-20-20h-20v-68h120c11.027344 0 20 8.972656 20 20v28c0 11.027344-8.972656 20-20 20-11.046875 0-20 8.953125-20 20s8.953125 20 20 20c33.085938 0 60-26.914062 60-60v-28c0-33.085938-26.914062-60-60-60zm-296.859375 107.605469-67.605469-67.605469h55.929688l68 68h-55.96875c-.121094-.128906-.226563-.265625-.355469-.394531zm-115.140625-19.605469v-28c0-3.1875.769531-6.191406 2.097656-8.867188l56.867188 56.867188h-38.964844c-11.027344 0-20-8.972656-20-20zm228.035156 20-68-68h54.804688l37.160156 37.160156v30.839844zm183.964844-290h-392c-33.085938 0-60 26.914062-60 60v28c0 33.085938 26.914062 60 60 60h392c33.085938 0 60-26.914062 60-60v-28c0-33.085938-26.914062-60-60-60zm-300.109375 104.105469-64.105469-64.105469h54.429688l68 68h-55.3125c-.828125-1.382812-1.816406-2.699219-3.011719-3.894531zm113.5 2.5-66.605469-66.605469h55.929688l68 68h-56.0625c-.398438-.476562-.8125-.945312-1.261719-1.394531zm94.609375-17.890625-48.714844-48.714844h48.714844zm-320-.714844v-28c0-3.253906.796875-6.316406 2.179688-9.035156l57.035156 57.035156h-39.214844c-11.027344 0-20-8.972656-20-20zm432 0c0 11.027344-8.972656 20-20 20h-52v-68h52c11.027344 0 20 8.972656 20 20zm0 0"/></svg>