<?xml version="1.0" encoding="iso-8859-1"?>
<!-- Generator: Adobe Illustrator 19.0.0, SVG Export Plug-In . SVG Version: 6.00 Build 0)  -->
<svg version="1.1" id="Layer_1" xmlns="http://www.w3.org/2000/svg" xmlns:xlink="http://www.w3.org/1999/xlink" x="0px" y="0px"
	 viewBox="0 0 512 512" style="enable-background:new 0 0 512 512;" xml:space="preserve">
<g>
	<g>
		<path d="M326.17,31.219c19.743,15.384,33.932,36.509,40.623,60.893l41.301,99.197l-34.363,8.59v68.588h-35.003v24.976H512V31.219
			H326.17z"/>
	</g>
</g>
<g>
	<g>
		<polygon points="512,405.854 512,330.927 0,330.927 0,405.854 187.317,405.854 187.317,443.317 143.61,443.317 143.61,480.781 
			368.39,480.781 368.39,443.317 324.683,443.317 324.683,405.854 		"/>
	</g>
</g>
<g>
	<g>
		<path d="M141.175,152.656c-7.884-30.074-3.533-61.506,12.252-88.507c7.534-12.887,17.246-23.975,28.59-32.929H0v262.244h174.323
			v-61.509l-32.81-78.013L141.175,152.656z"/>
	</g>
</g>
<g>
	<g>
		<path d="M331.232,104.171l-0.328-1.254c-11.094-42.319-54.547-67.719-96.863-56.626c-20.395,5.346-37.538,18.403-48.272,36.764
			c-10.521,17.995-13.579,38.855-8.664,58.878l34.682,82.463v69.068h89.478v-62.439h35.003V170.65l20.509-5.128L331.232,104.171z"/>
	</g>
</g>
<g>
</g>
<g>
</g>
<g>
</g>
<g>
</g>
<g>
</g>
<g>
</g>
<g>
</g>
<g>
</g>
<g>
</g>
<g>
</g>
<g>
</g>
<g>
</g>
<g>
</g>
<g>
</g>
<g>
</g>
</svg>
