<?xml version="1.0" encoding="iso-8859-1"?>
<!-- Generator: Adobe Illustrator 19.0.0, SVG Export Plug-In . SVG Version: 6.00 Build 0)  -->
<svg version="1.1" id="Layer_1" xmlns="http://www.w3.org/2000/svg" xmlns:xlink="http://www.w3.org/1999/xlink" x="0px" y="0px"
	 viewBox="0 0 511.999 511.999" style="enable-background:new 0 0 511.999 511.999;" xml:space="preserve">
<g>
	<g>
		<path d="M0,33.448v104.721h510.514V33.448H0z M78.541,105.443c-10.844,0-19.635-8.791-19.635-19.635
			c0-10.844,8.791-19.635,19.635-19.635c10.844,0,19.635,8.791,19.635,19.635C98.176,96.652,89.385,105.443,78.541,105.443z
			 M143.991,105.443c-10.844,0-19.635-8.791-19.635-19.635c0-10.844,8.791-19.635,19.635-19.635
			c10.844,0,19.635,8.791,19.635,19.635C163.626,96.652,154.835,105.443,143.991,105.443z M209.442,105.443
			c-10.844,0-19.635-8.791-19.635-19.635c0-10.844,8.791-19.635,19.635-19.635c10.844,0,19.635,8.791,19.635,19.635
			C229.077,96.652,220.286,105.443,209.442,105.443z"/>
	</g>
</g>
<g>
	<g>
		<path d="M0,177.439v261.802h322.43c-35.245-18.693-59.319-55.756-59.319-98.354c0-24.371,7.897-46.924,21.239-65.273h-0.295
			v-39.27h52.222c11.89-4.346,24.723-6.723,38.1-6.723c61.352,0,111.266,49.914,111.266,111.266c0,8.625-1.018,17.011-2.885,25.077
			l27.756,27.756V177.439H0z M229.077,354.155H98.176v-39.27h130.901V354.155z M229.077,275.615H98.176v-39.27h130.901V275.615z"/>
	</g>
</g>
<g>
	<g>
		<path d="M506.295,445.041l-40.638-40.642c-7.546,10.814-16.957,20.223-27.769,27.769l40.64,40.641
			c7.655,7.655,20.112,7.655,27.768,0c3.678-3.678,5.703-8.609,5.703-13.885C511.999,453.65,509.974,448.718,506.295,445.041z"/>
	</g>
</g>
<g>
	<g>
		<path d="M374.377,268.892c-39.698,0-71.996,32.297-71.996,71.996s32.297,71.996,71.996,71.996s71.996-32.297,71.996-71.996
			S414.076,268.892,374.377,268.892z"/>
	</g>
</g>
<g>
</g>
<g>
</g>
<g>
</g>
<g>
</g>
<g>
</g>
<g>
</g>
<g>
</g>
<g>
</g>
<g>
</g>
<g>
</g>
<g>
</g>
<g>
</g>
<g>
</g>
<g>
</g>
<g>
</g>
</svg>
