<svg enable-background="new 0 0 64 64" height="64" viewBox="0 0 64 64" width="64" xmlns="http://www.w3.org/2000/svg"><path d="m6.8 23.6-6.5 5.4s-.9.9-1.9.9-1.9-.9-1.9-.9l-6.5-5.5 5.4 6.6s.9.9.9 1.9-.9 1.9-.9 1.9l-5.4 6.5 6.5-5.5s.9-.9 1.9-.9 1.9.9 1.9.9l6.5 5.5-5.5-6.5s-.9-.9-.9-1.9.9-1.9.9-1.9z" fill="none"/><path d="m62.1 9.4c-2.4-2.4-5-2-6.9-.9 1-1.8 1.4-4.5-.9-6.9-3.2-2.9-6-.9-7.9 0-6.5 3-10.2 3.2-14.4 3.2s-7.9-.2-14.4-3.3c-1.9-.9-4.7-2.9-7.9 0-2.4 2.4-2 5.1-.9 6.9-1.9-1-4.6-1.4-7 1-2.9 3.3-.9 6.1 0 8 3.1 6.6 3.3 10.4 3.3 14.6s-.2 8-3.3 14.6c-.9 1.9-2.8 4.7 0 8 2.4 2.4 5.1 2 6.9.9-1 1.8-1.4 4.5.9 6.9 3.2 3 6 1 7.9.1 6.5-3.1 10.3-3.3 14.4-3.3 4.2 0 7.9.2 14.4 3.3 1.9.9 4.7 2.9 7.9-.1 2.4-2.4 2-5.1.9-6.9 1.8 1 4.5 1.4 6.9-.9 2.9-3.3.9-6.1 0-8-2.9-6.6-3.1-10.4-3.1-14.6s.2-8 3.3-14.6c.9-1.9 2.9-4.7-.1-8zm-23.2 27.1 12.9 15.5-15.4-13s-2.1-2-4.4-2-4.4 2-4.4 2l-15.4 13 12.9-15.5s2-2.1 2-4.5c0-2.3-2-4.4-2-4.4l-12.9-15.6 15.3 13s2.1 2.1 4.4 2.1 4.4-2.1 4.4-2.1l15.3-13v.1l-12.7 15.4s-2 2.1-2 4.4c0 2.5 2 4.6 2 4.6z" fill="#f33"/></svg>