<?xml version="1.0" standalone="no"?><!DOCTYPE svg PUBLIC "-//W3C//DTD SVG 1.1//EN" "http://www.w3.org/Graphics/SVG/1.1/DTD/svg11.dtd"><svg t="1600395497018" class="icon" viewBox="0 0 1024 1024" version="1.1" xmlns="http://www.w3.org/2000/svg" p-id="3094" xmlns:xlink="http://www.w3.org/1999/xlink" width="200" height="200"><defs><style type="text/css"></style></defs><path d="M494.023111 635.335111C628.849778 676.181333 726.243556 794.055111 726.243556 932.977778v26.965333H0V932.977778c0-139.036444 97.393778-256.796444 232.106667-297.642667-76.8-41.870222-128.455111-119.466667-128.455111-208.440889 0-133.347556 116.053333-241.436444 259.413333-241.436444s259.413333 108.202667 259.413333 241.436444c0 85.902222-48.924444 165.205333-128.455111 208.440889z m297.756445-121.400889C926.606222 554.666667 1024 672.426667 1024 811.463111v26.965333H776.988444c-12.856889-45.624889-34.816-88.519111-64.967111-126.520888-28.103111-35.498667-62.805333-66.104889-102.4-90.339556 49.607111-54.385778 76.8-123.335111 76.8-194.673778 0.113778-79.872-34.019556-156.444444-94.663111-212.878222-34.474667-32.199111-76.344889-56.547556-122.424889-71.452444 49.152-50.062222 118.670222-78.620444 191.488-78.506667 143.36 0 259.413333 108.202667 259.413334 241.436444 0 85.788444-48.810667 165.091556-128.455111 208.440889z" fill="#333333" p-id="3095"></path></svg>