<?xml version="1.0" encoding="iso-8859-1"?>
<!-- Generator: Adobe Illustrator 19.0.0, SVG Export Plug-In . SVG Version: 6.00 Build 0)  -->
<svg version="1.1" id="Capa_1" xmlns="http://www.w3.org/2000/svg" xmlns:xlink="http://www.w3.org/1999/xlink" x="0px" y="0px"
	 viewBox="0 0 512 512" style="enable-background:new 0 0 512 512;" xml:space="preserve">
<g>
	<g>
		<path d="M176.33,66.18v379.64h159.34V66.18H176.33z M256,381.5c-8.49,0-15.38-6.88-15.38-15.38c0-8.49,6.89-15.37,15.38-15.37
			s15.38,6.88,15.38,15.37C271.38,374.62,264.49,381.5,256,381.5z M303.25,222.12h-94.5v-30h94.5V222.12z M303.25,163.6h-94.5v-30
			h94.5V163.6z" fill="#19be6b"/>
	</g>
</g>
<g>
	<g>
		<path d="M365.67,92v328H512V92H365.67z M436,357.5c-8.491,0-15.375-6.884-15.375-15.375c0-8.491,6.884-15.375,15.375-15.375
			c8.491,0,15.375,6.884,15.375,15.375C451.375,350.616,444.491,357.5,436,357.5z M474.333,242.188h-76.666v-30h76.666V242.188z
			 M474.333,183.667h-76.666v-30h76.666V183.667z" fill="#19be6b"/>
	</g>
</g>
<g>
	<g>
		<path d="M0,92v328h146.33V92H0z M76,357.5c-8.492,0-15.375-6.884-15.375-15.375c0-8.491,6.883-15.375,15.375-15.375
			s15.375,6.884,15.375,15.375C91.375,350.616,84.492,357.5,76,357.5z M114.333,242.188H37.667v-30h76.666V242.188z
			 M114.333,183.667H37.667v-30h76.666V183.667z" fill="#19be6b"/>
	</g>
</g>
<g>
</g>
<g>
</g>
<g>
</g>
<g>
</g>
<g>
</g>
<g>
</g>
<g>
</g>
<g>
</g>
<g>
</g>
<g>
</g>
<g>
</g>
<g>
</g>
<g>
</g>
<g>
</g>
<g>
</g>
</svg>
