<?xml version="1.0" encoding="iso-8859-1"?>
<!-- Generator: Adobe Illustrator 17.1.0, SVG Export Plug-In . SVG Version: 6.00 Build 0)  -->
<!DOCTYPE svg PUBLIC "-//W3C//DTD SVG 1.1//EN" "http://www.w3.org/Graphics/SVG/1.1/DTD/svg11.dtd">
<svg version="1.1" id="Capa_1" xmlns="http://www.w3.org/2000/svg" xmlns:xlink="http://www.w3.org/1999/xlink" x="0px" y="0px"
	 viewBox="0 0 284 284" style="enable-background:new 0 0 284 284;" xml:space="preserve">
<g>
	<path d="M283.217,180.264c-0.036-0.692-0.114-1.389-0.27-2.089L247.761,20.619C246.295,14.047,239.872,9,233.139,9H51.528
		c-6.732,0-13.155,5.046-14.623,11.619L1.72,178.225c-0.152,0.68-0.561,1.355-0.599,2.025C0.61,182.152,0,184.148,0,186.209v65.993
		C0,264.885,10.983,275,23.666,275H261c12.683,0,23-10.115,23-22.798v-65.993C284,184.153,283.725,182.161,283.217,180.264z
		 M142.333,34.178c46.755,0,84.656,28.321,84.656,63.257c0,34.936-37.902,63.257-84.656,63.257s-84.656-28.321-84.656-63.257
		C57.677,62.499,95.579,34.178,142.333,34.178z M254,245H30v-52h224V245z"/>
	<rect x="49" y="207" width="65" height="25"/>
	<path d="M142.333,118.114c14.327,0,25.983-9.277,25.983-20.68c0-11.402-11.656-20.679-25.983-20.679
		c-14.327,0-25.983,9.276-25.983,20.679C116.35,108.837,128.006,118.114,142.333,118.114z"/>
</g>
<g>
</g>
<g>
</g>
<g>
</g>
<g>
</g>
<g>
</g>
<g>
</g>
<g>
</g>
<g>
</g>
<g>
</g>
<g>
</g>
<g>
</g>
<g>
</g>
<g>
</g>
<g>
</g>
<g>
</g>
</svg>
