<?xml version="1.0" standalone="no"?><!DOCTYPE svg PUBLIC "-//W3C//DTD SVG 1.1//EN" "http://www.w3.org/Graphics/SVG/1.1/DTD/svg11.dtd"><svg t="1599639670834" class="icon" viewBox="0 0 1194 1024" version="1.1" xmlns="http://www.w3.org/2000/svg" p-id="1155" xmlns:xlink="http://www.w3.org/1999/xlink" width="233.203125" height="200"><defs><style type="text/css"></style></defs><path d="M676.693333 730.026667c-169.301333 0-232.106667-10.24-338.005333 28.586666C192.426667 820.565333 94.634667 896.597333 0 1024c2.133333-11.178667 3.413333-22.442667 5.461333-33.28l6.4-33.28c30.634667-136.533333 73.130667-271.018667 149.845334-389.546667 78.933333-121.173333 103.850667-163.072 237.056-225.024 86.442667-40.362667 120.405333-42.410667 215.381333-48.64 20.394667-1.450667 40.362667-2.048 61.354667-2.901333V2.56c1.450667-0.597333 2.730667-2.048 3.584-2.645333L1194.666667 511.232c-172.970667 170.154667-345.6 339.370667-518.570667 509.269333 0.597333-96.170667 0.597333-193.194667 0.597333-290.474666z" p-id="1156"></path></svg>