<?xml version="1.0" standalone="no"?><!DOCTYPE svg PUBLIC "-//W3C//DTD SVG 1.1//EN" "http://www.w3.org/Graphics/SVG/1.1/DTD/svg11.dtd"><svg t="1599183977405" class="icon" viewBox="0 0 1024 1024" version="1.1" xmlns="http://www.w3.org/2000/svg" p-id="3096" width="200" height="200" xmlns:xlink="http://www.w3.org/1999/xlink"><defs><style type="text/css"></style></defs><path d="M868.608 49.664l-193.28 97.792A32 32 0 0 0 673.792 204.8l204.8 118.528a32 32 0 0 0 48.128-29.44L914.944 76.8a32 32 0 0 0-46.336-27.136zM960 1024H64a51.2 51.2 0 0 1-51.2-51.2V51.2a51.2 51.2 0 0 1 102.4 0v870.4h844.8a51.2 51.2 0 0 1 0 102.4z" fill="#000000" p-id="3097"></path><path d="M217.6 793.6a51.2 51.2 0 0 1-43.264-78.592l179.2-281.6a51.2 51.2 0 0 1 54.272-22.528L601.6 454.144 737.024 230.4a51.2 51.2 0 1 1 87.552 51.2l-153.6 256a51.2 51.2 0 0 1-54.784 23.552l-195.584-43.264-159.744 251.904A51.2 51.2 0 0 1 217.6 793.6z" fill="#000000" p-id="3098"></path></svg>