<svg height="512pt" viewBox="0 0 512 512.00106" width="512pt" xmlns="http://www.w3.org/2000/svg"><path d="m308.25 202.296875c-28.996094-28.988281-76.007812-28.988281-105.003906 0-28.996094 28.984375-28.996094 75.980469 0 104.96875 28.996094 28.984375 76.007812 28.984375 105.003906 0 28.996094-28.988281 28.996094-75.984375 0-104.96875zm0 0"/><path d="m57.402344 114.925781c10.121094 0 19.625-2.628906 27.878906-7.222656.441406.582031.910156 1.152344 1.445312 1.683594l83.113282 83.085937c3.261718-4.472656 6.886718-8.726562 10.875-12.714844 3.628906-3.625 7.472656-6.949218 11.503906-9.972656l-82.964844-82.933594c-.527344-.53125-1.097656-1-1.675781-1.4375 4.597656-8.253906 7.222656-17.753906 7.222656-27.871093 0-31.691407-25.699219-57.378907-57.398437-57.378907-31.703125 0-57.402344 25.6875-57.402344 57.378907 0 31.691406 25.699219 57.382812 57.402344 57.382812zm0 0"/><path d="m453.664062 396.289062c-10.121093 0-19.625 2.628907-27.882812 7.222657-.441406-.582031-.910156-1.152344-1.441406-1.683594l-83.570313-83.542969c-3.027343 4.035156-6.359375 7.886719-9.992187 11.515625-3.984375 3.984375-8.234375 7.605469-12.703125 10.859375l83.734375 83.703125c.53125.53125 1.09375 1 1.675781 1.4375-4.59375 8.253907-7.222656 17.753907-7.222656 27.871094 0 31.691406 25.699219 57.378906 57.402343 57.378906 31.699219 0 57.398438-25.6875 57.398438-57.378906s-25.699219-57.382813-57.398438-57.382813zm0 0"/><path d="m239.703125 70.46875c-.382813 1.367188-.601563 2.800781-.601563 4.289062v75.226563c5.457032-.851563 11.015626-1.296875 16.644532-1.296875 5.140625 0 10.222656.371094 15.222656 1.082031v-75.011719c0-1.210937-.148438-2.386718-.402344-3.523437 4.234375-1.804687 8.199219-4.425781 11.65625-7.878906 14.496094-14.496094 14.496094-37.992188 0-52.484375-14.5-14.496094-38.003906-14.496094-52.503906 0-14.496094 14.492187-14.496094 37.988281 0 52.484375 2.996094 2.992187 6.378906 5.359375 9.984375 7.113281zm0 0"/><path d="m271.808594 440.167969c.375-1.355469.59375-2.78125.59375-4.261719v-76.332031c-5.460938.855469-11.023438 1.296875-16.65625 1.296875-5.136719 0-10.214844-.367188-15.210938-1.082032v76.117188c0 1.335938.179688 2.625.488282 3.863281-4.101563 1.800781-7.945313 4.371094-11.304688 7.730469-14.496094 14.492188-14.496094 37.988281 0 52.480469 14.5 14.496093 38.003906 14.496093 52.503906 0 14.496094-14.492188 14.496094-37.988281 0-52.480469-3.113281-3.113281-6.648437-5.554688-10.414062-7.332031zm0 0"/><path d="m318.410156 169.140625c4.347656 3.195313 8.484375 6.734375 12.367188 10.621094 3.730468 3.726562 7.148437 7.683593 10.242187 11.839843l82.867188-82.839843c.457031-.457031.875-.941407 1.265625-1.441407 8.402344 4.820313 18.128906 7.589844 28.511718 7.589844 31.699219 0 57.398438-25.691406 57.398438-57.382812s-25.699219-57.382813-57.398438-57.382813c-31.703124 0-57.402343 25.691407-57.402343 57.382813 0 9.84375 2.480469 19.105468 6.851562 27.203125-.609375.453125-1.203125.9375-1.757812 1.492187zm0 0"/><path d="m193.71875 340.878906c-4.578125-3.3125-8.929688-7.007812-13.003906-11.078125-3.542969-3.539062-6.796875-7.292969-9.765625-11.21875l-84.222657 84.195313c-.535156.53125-1.003906 1.101562-1.445312 1.683594-8.253906-4.59375-17.757812-7.222657-27.878906-7.222657-31.703125 0-57.402344 25.691407-57.402344 57.382813s25.699219 57.378906 57.402344 57.378906c31.699218 0 57.402344-25.6875 57.402344-57.378906 0-10.117188-2.628907-19.617188-7.226563-27.871094.582031-.4375 1.148437-.90625 1.679687-1.4375zm0 0"/><path d="m438 271.820312c1.175781 0 2.324219-.136718 3.429688-.382812 1.765624 3.664062 4.15625 7.101562 7.195312 10.136719 14.496094 14.492187 38.003906 14.492187 52.5 0 14.5-14.492188 14.5-37.992188 0-52.484375-14.496094-14.492188-38.003906-14.492188-52.5 0-3.316406 3.316406-5.863281 7.105468-7.664062 11.148437-.960938-.179687-1.949219-.285156-2.960938-.285156h-77.164062c.675781 4.871094 1.027343 9.820313 1.027343 14.828125 0 5.765625-.464843 11.457031-1.359375 17.039062zm0 0"/><path d="m73.945312 239.953125c-.996093 0-1.964843.101563-2.910156.277344-1.800781-4.039063-4.347656-7.828125-7.660156-11.140625-14.496094-14.492188-38.003906-14.492188-52.5 0-14.5 14.492187-14.5 37.992187 0 52.484375 14.496094 14.492187 38.003906 14.492187 52.5 0 3.035156-3.035157 5.425781-6.464844 7.1875-10.121094 1.089844.234375 2.21875.367187 3.378906.367187h77.050782c-.894532-5.582031-1.359376-11.277343-1.359376-17.039062 0-5.007812.351563-9.957031 1.027344-14.828125zm0 0"/></svg>