<?xml version="1.0" encoding="iso-8859-1"?>
<!-- Generator: Adobe Illustrator 19.0.0, SVG Export Plug-In . SVG Version: 6.00 Build 0)  -->
<svg version="1.1" id="Capa_1" xmlns="http://www.w3.org/2000/svg" xmlns:xlink="http://www.w3.org/1999/xlink" x="0px" y="0px"
	 viewBox="0 0 512 512" style="enable-background:new 0 0 512 512;" xml:space="preserve">
<g>
	<g>
		<rect x="422" y="180" width="90" height="30"/>
	</g>
</g>
<g>
	<g>
		<rect x="422" y="240" width="90" height="152"/>
	</g>
</g>
<g>
	<g>
		<path d="M422.782,422c1.635,16.326,6.132,32.386,13.471,47.051l17.329,34.658C456.131,508.792,461.316,512,467,512
			c5.684,0,10.869-3.208,13.418-8.291l17.329-34.658c7.339-14.665,11.836-30.725,13.471-47.051H422.782z"/>
	</g>
</g>
<g>
	<g>
		<path d="M467,90c-24.814,0-45,20.186-45,45v15h90v-15C512,110.186,491.814,90,467,90z"/>
	</g>
</g>
<g>
	<g>
		<path d="M272,0H120c-16.569,0-30,13.431-30,30c0,16.567,13.431,30,30,30h152c16.569,0,30-13.433,30-30C302,13.431,288.569,0,272,0
			z"/>
	</g>
</g>
<g>
	<g>
		<path d="M105,392c-8.276,0-15,6.724-15,15s6.724,15,15,15s15-6.724,15-15S113.276,392,105,392z"/>
	</g>
</g>
<g>
	<g>
		<path d="M105,150c-8.276,0-15,6.724-15,15s6.724,15,15,15s15-6.724,15-15S113.276,150,105,150z"/>
	</g>
</g>
<g>
	<g>
		<path d="M105,270c-8.276,0-15,6.724-15,15s6.724,15,15,15s15-6.724,15-15S113.276,270,105,270z"/>
	</g>
</g>
<g>
	<g>
		<path d="M347,30h-15c0,33.091-26.909,60-60,60H120c-33.091,0-60-26.909-60-60H45C20.186,30,0,50.186,0,75v392
			c0,24.814,20.186,45,45,45h302c24.814,0,45-20.186,45-45V75C392,50.186,371.814,30,347,30z M105,452c-24.814,0-45-20.186-45-45
			c0-24.814,20.186-45,45-45c24.814,0,45,20.186,45,45C150,431.814,129.814,452,105,452z M105,330c-24.814,0-45-20.186-45-45
			c0-24.814,20.186-45,45-45c24.814,0,45,20.186,45,45C150,309.814,129.814,330,105,330z M105,210c-24.814,0-45-20.186-45-45
			c0-24.814,20.186-45,45-45c24.814,0,45,20.186,45,45C150,189.814,129.814,210,105,210z M317,422H195c-8.291,0-15-6.709-15-15
			c0-8.291,6.709-15,15-15h122c8.291,0,15,6.709,15,15C332,415.291,325.291,422,317,422z M317,300H195c-8.291,0-15-6.709-15-15
			c0-8.291,6.709-15,15-15h122c8.291,0,15,6.709,15,15C332,293.291,325.291,300,317,300z M317,180H195c-8.291,0-15-6.709-15-15
			s6.709-15,15-15h122c8.291,0,15,6.709,15,15S325.291,180,317,180z"/>
	</g>
</g>
<g>
</g>
<g>
</g>
<g>
</g>
<g>
</g>
<g>
</g>
<g>
</g>
<g>
</g>
<g>
</g>
<g>
</g>
<g>
</g>
<g>
</g>
<g>
</g>
<g>
</g>
<g>
</g>
<g>
</g>
</svg>
