<svg class="icon" style="width: 1em;height: 1em;vertical-align: middle;fill: currentColor;overflow: hidden;" viewBox="0 0 1024 1024" version="1.1" xmlns="http://www.w3.org/2000/svg"><path d="M511.78 305.35v84.89l-0.33 0.18v-0.5c-65.72 35.71-129.15 74.16-195.31 109.54l-0.66 145.69 0.29-0.19 0.04 0.52 196.41-114.47-0.88 268.49-176.21-100.09-19.43-11.21-0.02 0.15c-0.3 35.43-2.88 35.32 8.09 42.72l2.56 1.72 54.73 31.19 130.82 75.07-0.01-0.42 0.67 0.42v87.63l-118.31-68.47c-141.66-79.13-151.81-74.61-152.3-171.73l0.03-226.13 269.82-155z" fill="#fe0e0e" /><path d="M512 268.43l270.24 153.36V251.34l-77.23-41.73v80.29l-115.78-64.3v-86.76L512.22 97 512 268.43z m-0.22 121.49l197.94 113.92v35.49L512 428.69v62.99l196.96 112.28v120.5L511.78 839.37V927l175.26-100.78c105.82-57.73 94.32-54.77 94.32-182.17V457.83L511.67 305.35l0.11 84.57z" fill="#fe0e0e" /><path d="M241.76 423.11L512 268.43 512.22 97l-77.45 45.02v83.58l-112.61 64.3v-80.29l-80.4 41.73zM511.67 491.9v-62.99l-120.5 68.13c-51.37 29.91-40.09 8.44-41.73 87.63l162.23-92.77zM512 429.02l197.84 110.31v-35.49L511.78 389.92z" fill="#fe0e0e" /></svg>