<?xml version="1.0" encoding="iso-8859-1"?>
<!-- Generator: Adobe Illustrator 19.0.0, SVG Export Plug-In . SVG Version: 6.00 Build 0)  -->
<svg version="1.1" id="Layer_1" xmlns="http://www.w3.org/2000/svg" xmlns:xlink="http://www.w3.org/1999/xlink" x="0px" y="0px"
	 viewBox="0 0 512 512" style="enable-background:new 0 0 512 512;" xml:space="preserve">
<g>
	<g>
		<path d="M0,22.974v118.154h512V22.974H0z M59.077,101.744c-10.875,0-19.692-8.817-19.692-19.692
			c0-10.875,8.817-19.692,19.692-19.692c10.877,0,19.692,8.817,19.692,19.692C78.769,92.927,69.954,101.744,59.077,101.744z
			 M124.718,101.744c-10.875,0-19.692-8.817-19.692-19.692c0-10.875,8.817-19.692,19.692-19.692
			c10.877,0,19.692,8.817,19.692,19.692C144.41,92.927,135.595,101.744,124.718,101.744z M190.359,101.744
			c-10.875,0-19.692-8.817-19.692-19.692c0-10.875,8.817-19.692,19.692-19.692c10.877,0,19.692,8.817,19.692,19.692
			C210.051,92.927,201.236,101.744,190.359,101.744z"/>
	</g>
</g>
<g>
	<g>
		<rect y="338.051" width="170.667" height="150.974"/>
	</g>
</g>
<g>
	<g>
		<rect y="259.282" width="170.667" height="39.385"/>
	</g>
</g>
<g>
	<g>
		<rect y="180.513" width="170.667" height="39.385"/>
	</g>
</g>
<g>
	<g>
		<rect x="210.051" y="180.513" width="118.154" height="308.513"/>
	</g>
</g>
<g>
	<g>
		<rect x="367.59" y="180.513" width="144.41" height="308.513"/>
	</g>
</g>
<g>
</g>
<g>
</g>
<g>
</g>
<g>
</g>
<g>
</g>
<g>
</g>
<g>
</g>
<g>
</g>
<g>
</g>
<g>
</g>
<g>
</g>
<g>
</g>
<g>
</g>
<g>
</g>
<g>
</g>
</svg>
