<?xml version="1.0" standalone="no"?><!DOCTYPE svg PUBLIC "-//W3C//DTD SVG 1.1//EN" "http://www.w3.org/Graphics/SVG/1.1/DTD/svg11.dtd"><svg t="1600395361637" class="icon" viewBox="0 0 1024 1024" version="1.1" xmlns="http://www.w3.org/2000/svg" p-id="3761" xmlns:xlink="http://www.w3.org/1999/xlink" width="200" height="200"><defs><style type="text/css"></style></defs><path d="M987.621793 776.750839a181.512154 181.512154 0 0 0-29.607232-72.035737l24.747297-24.715324-45.753724-45.689778-24.77927 24.715324a182.247539 182.247539 0 0 0-72.163631-29.575258v-35.49031h-64.58597v35.49031a182.247539 182.247539 0 0 0-72.067711 29.607231l-24.747297-24.715324-45.753724 45.689778 24.77927 24.715324a181.5761 181.5761 0 0 0-29.607231 72.035738h-35.68215v64.49005h35.522283a181.544127 181.544127 0 0 0 29.607232 72.003764l-24.77927 24.747297 45.753724 45.689778 24.907163-24.747297a182.247539 182.247539 0 0 0 72.163631 29.543285V1024h64.617943v-35.49031a182.247539 182.247539 0 0 0 72.163631-29.543285l24.77927 24.715324 45.753724-45.689778-24.747297-24.747297a181.48018 181.48018 0 0 0 29.607232-72.003765H1023.144076v-64.49005h-35.522283z m-179.849545 118.301034a86.008049 86.008049 0 1 1 86.135942-85.976075 86.071995 86.071995 0 0 1-86.135942 85.912129z m-206.771023 57.551854a249.103609 249.103609 0 0 1-40.925763-98.893269H511.572038V764.377191h48.471451a249.039663 249.039663 0 0 1 40.925763-98.89327l-35.554257-34.403219 63.946505-63.946505 34.467166 34.403219a250.062807 250.062807 0 0 1 76.991592-34.403219 508.662472 508.662472 0 0 0-135.150938-45.689778 269.374651 269.374651 0 1 0-188.45035 0A510.868626 510.868626 0 0 0 0 1024h604.29447l-38.783555-37.088973z" p-id="3762"></path></svg>