<?xml version="1.0" encoding="iso-8859-1"?>
<!-- Generator: Adobe Illustrator 16.0.0, SVG Export Plug-In . SVG Version: 6.00 Build 0)  -->
<!DOCTYPE svg PUBLIC "-//W3C//DTD SVG 1.1//EN" "http://www.w3.org/Graphics/SVG/1.1/DTD/svg11.dtd">
<svg version="1.1" id="Capa_1" xmlns="http://www.w3.org/2000/svg" xmlns:xlink="http://www.w3.org/1999/xlink" x="0px" y="0px"
	 width="137.95px" height="137.95px" viewBox="0 0 137.95 137.95" style="enable-background:new 0 0 137.95 137.95;"
	 xml:space="preserve">
<g>
	<g>
		<path d="M36.974,28.826V8.138C36.974,3.666,33.326,0,28.848,0H8.16C3.693,0,0.027,3.666,0.027,8.138v20.688
			c0,4.463,3.666,8.138,8.132,8.138h20.688C33.326,36.964,36.974,33.29,36.974,28.826z" fill="#19be6b"/>
		<path d="M82.932,28.826V8.138C82.932,3.666,79.284,0,74.809,0H54.126c-4.472,0-8.138,3.666-8.138,8.138v20.688
			c0,4.463,3.666,8.138,8.138,8.138h20.682C79.284,36.964,82.932,33.29,82.932,28.826z" fill="#19be6b"/>
		<path d="M128.893,28.826V8.138c0-4.473-3.642-8.138-8.123-8.138h-20.685c-4.464,0-8.13,3.666-8.13,8.138v20.688
			c0,4.463,3.666,8.138,8.13,8.138h20.685C125.251,36.964,128.893,33.29,128.893,28.826z" fill="#19be6b"/>
		<path d="M36.974,74.811V54.124c0-4.473-3.647-8.138-8.126-8.138H8.16c-4.466,0-8.132,3.66-8.132,8.138v20.688
			c0,4.457,3.666,8.136,8.132,8.136h20.688C33.326,82.947,36.974,79.268,36.974,74.811z" fill="#19be6b"/>
		<path d="M82.932,74.811V54.124c0-4.473-3.647-8.138-8.123-8.138H54.126c-4.472,0-8.138,3.66-8.138,8.138v20.688
			c0,4.457,3.666,8.136,8.138,8.136h20.682C79.284,82.947,82.932,79.268,82.932,74.811z" fill="#19be6b"/>
		<path d="M128.893,74.811V54.124c0-4.473-3.642-8.138-8.123-8.138h-20.685c-4.464,0-8.13,3.66-8.13,8.138v20.688
			c0,4.457,3.666,8.136,8.13,8.136h20.685C125.251,82.947,128.893,79.268,128.893,74.811z" fill="#19be6b"/>
		<path d="M36.974,120.791v-20.685c0-4.47-3.647-8.135-8.126-8.135H8.16c-4.466,0-8.132,3.665-8.132,8.135v20.685
			c0,4.464,3.666,8.142,8.132,8.142h20.688C33.326,128.932,36.974,125.248,36.974,120.791z" fill="#19be6b"/>
		<path d="M82.932,120.791v-20.685c0-4.47-3.647-8.135-8.123-8.135H54.126c-4.472,0-8.138,3.665-8.138,8.135v20.685
			c0,4.464,3.666,8.142,8.138,8.142h20.682C79.284,128.932,82.932,125.248,82.932,120.791z" fill="#19be6b"/>
		<path d="M137.923,129.809v-20.686c0-4.469-3.647-8.141-8.123-8.141h-20.685c-4.47,0-8.142,3.665-8.142,8.141v20.686
			c0,4.463,3.672,8.141,8.142,8.141H129.8C134.275,137.95,137.923,134.272,137.923,129.809z" fill="#19be6b"/>
	</g>
</g>
<g>
</g>
<g>
</g>
<g>
</g>
<g>
</g>
<g>
</g>
<g>
</g>
<g>
</g>
<g>
</g>
<g>
</g>
<g>
</g>
<g>
</g>
<g>
</g>
<g>
</g>
<g>
</g>
<g>
</g>
</svg>
