<?xml version="1.0" encoding="utf-8"?>
<!-- Svg Vector Icons : http://www.onlinewebfonts.com/icon -->
<!DOCTYPE svg PUBLIC "-//W3C//DTD SVG 1.1//EN" "http://www.w3.org/Graphics/SVG/1.1/DTD/svg11.dtd">
<svg version="1.1" xmlns="http://www.w3.org/2000/svg" xmlns:xlink="http://www.w3.org/1999/xlink" x="0px" y="0px" viewBox="0 0 1000 1000" enable-background="new 0 0 1000 1000" xml:space="preserve">
<metadata> Svg Vector Icons : http://www.onlinewebfonts.com/icon </metadata>
<g><path d="M398.8,915.8L398.5,707c0-25.7,9-48,28.3-70.3c16.3-18.7,389-452.9,431.4-502.4l-1.3-1.6L82.2,547.3l252.3,81.2l-15.2,46.7c-17.6-5.7-263.1-85.4-287.8-93.4c-12.3-4-20.3-13.7-21.4-26.1c-1.4-15.3,8-30.4,24.4-39.2C65,499.9,914.9,46.1,923.4,41.6l2.8-1.5l5.4,10.6l1-0.7c4.4-3,13.3-8,22.5-8c3.6,0,7,0.8,10.1,2.2c20.6,10,17.5,27.4,15.4,39l0,0.2c-0.2,1.1-0.4,2.2-0.6,3.3c-1.1,7-44.4,227.9-82.6,422.8c-29.2,149.2-54.5,278.1-56.6,289.4c-5,27-26.4,45.8-52,45.8c-4.9,0-9.8-0.7-14.6-2.2c-24.6-7.3-268.7-84-279.1-87.3l-3.1-1l15.6-47.2l13.5,4.2c213,66.4,261.2,81.4,264.2,82.4c0.9,0.3,1.8,0.5,2.6,0.5c2.7,0,4.4-1.9,5.1-5.7c1-5,45.6-233,125.6-642l1.7-8.6c0,0-456.2,531.6-461.8,538.2c-5.8,6.8-11.5,21.6-11,34.8c0.5,14.3,0,199.9,0,201.8l0,3.1H398.8L398.8,915.8z"/><path d="M90,534.3l784.4-366.6L327.1,662.1c-17.6-5.7-263.1-85.4-287.8-93.4c-12.3-4-20.3-13.7-21.4-26.1c-1.4-15.3,8-30.4,24.4-39.2C72.8,486.9,922.7,33.1,931.2,28.5L934,27l5.4,10.6l1-0.7c4.4-3,13.3-8.1,22.5-8.1c3.6,0,7,0.8,10.1,2.2c20.6,10,17.5,27.4,15.4,39l0,0.2c-0.2,1.1-0.4,2.2-0.6,3.3c-1.1,7-44.4,227.9-82.6,422.8c-29.2,149.2-54.5,278.1-56.6,289.4c-5,27-26.4,45.8-52,45.8c-4.9,0-9.8-0.7-14.6-2.2c-24.6-7.3-261.4-87.1-271.8-90.4l-93.7-34l410.7-494.8"/><path d="M561.5,915.8"/><path d="M918.6,146.5l1.7-8.6"/><path d="M785.2,793.7c0.9,0.3,1.8,0.5,2.6,0.5"/><path d="M424.1,754.2l125,48.5L406.2,973L424.1,754.2L424.1,754.2z"/></g>
</svg>